<svg width="1812" height="1011" viewBox="0 0 1812 1011" fill="none" xmlns="http://www.w3.org/2000/svg">
<path d="M6.23308 935.923C15.1641 944.854 29.6442 944.854 38.5752 935.923L22.4041 919.752L6.23308 935.923Z" fill="#57DAD1"/>
<path d="M239.2 847.189C230.269 856.12 230.269 870.6 239.2 879.531L255.371 863.36L239.2 847.189Z" fill="#FDA9FF"/>
<path d="M564.802 776.03C554.735 776.03 546.574 784.191 546.574 794.257H583.029C583.029 784.191 574.868 776.03 564.802 776.03Z" fill="#78AEFF"/>
<path d="M100.291 988.624C103.56 1000.82 116.1 1008.06 128.3 1004.8L122.381 982.705L100.291 988.624Z" fill="#FDA9FF"/>
<path d="M201.466 671.065C196.432 679.783 199.419 690.931 208.138 695.965L226.365 664.393C217.647 659.36 206.499 662.347 201.466 671.065Z" fill="#66E3FF"/>
<path d="M6.23275 801.78C18.4328 798.511 25.6728 785.971 22.4038 773.771L0.313733 779.69L6.23275 801.78Z" fill="#57DAD1"/>
<path d="M45.8708 555.657C49.1398 567.857 61.6799 575.097 73.8799 571.828L67.9609 549.738L45.8708 555.657Z" fill="#FDA9FF"/>
<path d="M147.046 238.098C142.012 246.816 144.999 257.964 153.718 262.998L171.945 231.426C163.227 226.393 152.079 229.38 147.046 238.098Z" fill="#66E3FF"/>
<path d="M1685.61 667.675C1688.88 679.875 1701.42 687.115 1713.62 683.846L1707.7 661.756L1685.61 667.675Z" fill="#FDA9FF"/>
<path d="M1786.79 350.116C1781.75 358.834 1784.74 369.982 1793.46 375.015L1811.69 343.444C1802.97 338.41 1791.82 341.398 1786.79 350.116Z" fill="#66E3FF"/>
<path d="M1186.01 614.723C1186.01 627.353 1196.25 637.592 1208.88 637.592L1208.88 614.723L1186.01 614.723Z" fill="#FDA9FF"/>
<path d="M1323.27 334.171C1316.15 341.289 1316.15 352.83 1323.27 359.949L1349.04 334.171C1341.92 327.052 1330.38 327.052 1323.27 334.171Z" fill="#66E3FF"/>
<path d="M569.444 428.723C569.444 441.354 559.205 451.593 546.574 451.593L546.574 428.723L569.444 428.723Z" fill="#FDA9FF"/>
<path d="M460.515 148.171C467.634 155.289 467.634 166.83 460.515 173.949L434.738 148.171C441.856 141.052 453.397 141.052 460.515 148.171Z" fill="#66E3FF"/>
<path d="M939.752 930.139C943.021 917.939 935.781 905.399 923.581 902.13L917.662 924.22L939.752 930.139Z" fill="#66E3FF"/>
<path d="M1165.67 889.674C1168.28 879.951 1162.51 869.956 1152.78 867.35L1143.35 902.563C1153.07 905.169 1163.07 899.398 1165.67 889.674Z" fill="#78AEFF"/>
<path d="M1487.24 853.825C1495.96 848.791 1498.95 837.644 1493.91 828.925L1462.34 847.153C1467.38 855.871 1478.52 858.858 1487.24 853.825Z" fill="#57DAD1"/>
<path d="M445.982 936.69C449.251 924.49 442.011 911.949 429.811 908.68L423.892 930.77L445.982 936.69Z" fill="#66E3FF"/>
<path d="M671.901 896.225C674.507 886.501 668.736 876.506 659.012 873.901L649.577 909.114C659.301 911.72 669.296 905.949 671.901 896.225Z" fill="#57DAD1"/>
<path d="M993.471 860.376C1002.19 855.342 1005.18 844.194 1000.14 835.476L968.572 853.704C973.605 862.422 984.753 865.409 993.471 860.376Z" fill="#FDA9FF"/>
<path d="M1553.46 761.014C1562.39 752.083 1562.39 737.603 1553.46 728.672L1537.28 744.843L1553.46 761.014Z" fill="#66E3FF"/>
<path d="M1769.34 838.93C1776.46 831.812 1776.46 820.271 1769.34 813.153L1743.56 838.93C1750.68 846.049 1762.22 846.049 1769.34 838.93Z" fill="#78AEFF"/>
<path d="M239.2 32.8265C230.269 23.8955 230.269 9.4154 239.2 0.484375L255.371 16.6554L239.2 32.8265Z" fill="#FDA9FF"/>
<path d="M1479.06 112.005C1470.13 103.074 1470.13 88.5936 1479.06 79.6626L1495.23 95.8337L1479.06 112.005Z" fill="#FDA9FF"/>
<path d="M47.6889 93.6494C42.6554 84.9312 45.6425 73.7833 54.3607 68.7499L72.5884 100.321C63.8702 105.355 52.7223 102.368 47.6889 93.6494Z" fill="#66E3FF"/>
<path d="M1553.46 166.718C1562.39 175.649 1562.39 190.13 1553.46 199.061L1537.28 182.889L1553.46 166.718Z" fill="#66E3FF"/>
<path d="M1769.34 88.8015C1776.46 95.9199 1776.46 107.461 1769.34 114.579L1743.56 88.8015C1750.68 81.6832 1762.22 81.6832 1769.34 88.8015Z" fill="#78AEFF"/>
</svg>
