<svg width="3001" height="1674" viewBox="0 0 3001 1674" fill="none" xmlns="http://www.w3.org/2000/svg">
<path d="M10.1175 1549.78C24.9091 1564.58 48.891 1564.58 63.6826 1549.78L36.9001 1523L10.1175 1549.78Z" fill="#57DAD1"/>
<path d="M395.958 1402.82C381.166 1417.62 381.166 1441.6 395.958 1456.39L422.741 1429.61L395.958 1402.82Z" fill="#FDA9FF"/>
<path d="M935.22 1284.97C918.548 1284.97 905.032 1298.49 905.032 1315.16H965.409C965.409 1298.49 951.893 1284.97 935.22 1284.97Z" fill="#78AEFF"/>
<path d="M165.896 1637.07C171.31 1657.27 192.079 1669.27 212.285 1663.85L202.482 1627.27L165.896 1637.07Z" fill="#FDA9FF"/>
<path d="M333.462 1111.13C325.126 1125.57 330.073 1144.03 344.512 1152.36L374.701 1100.08C360.262 1091.74 341.799 1096.69 333.462 1111.13Z" fill="#66E3FF"/>
<path d="M10.1169 1327.62C30.3226 1322.2 42.3135 1301.43 36.8994 1281.23L0.313762 1291.03L10.1169 1327.62Z" fill="#57DAD1"/>
<path d="M75.7656 919.987C81.1797 940.193 101.949 952.184 122.154 946.77L112.351 910.184L75.7656 919.987Z" fill="#FDA9FF"/>
<path d="M243.331 394.045C234.995 408.484 239.942 426.947 254.381 435.283L284.57 382.995C270.131 374.658 251.668 379.606 243.331 394.045Z" fill="#66E3FF"/>
<path d="M2791.51 1105.51C2796.92 1125.72 2817.69 1137.71 2837.9 1132.29L2828.09 1095.71L2791.51 1105.51Z" fill="#FDA9FF"/>
<path d="M2959.08 579.569C2950.74 594.008 2955.69 612.471 2970.12 620.808L3000.31 568.519C2985.87 560.183 2967.41 565.13 2959.08 579.569Z" fill="#66E3FF"/>
<path d="M1964.06 1017.81C1964.06 1038.73 1981.02 1055.69 2001.94 1055.69L2001.94 1017.81L1964.06 1017.81Z" fill="#FDA9FF"/>
<path d="M2191.39 553.161C2179.6 564.95 2179.6 584.065 2191.39 595.854L2234.08 553.161C2222.29 541.371 2203.18 541.371 2191.39 553.161Z" fill="#66E3FF"/>
<path d="M942.908 709.759C942.908 730.677 925.95 747.635 905.032 747.635L905.032 709.759L942.908 709.759Z" fill="#FDA9FF"/>
<path d="M762.501 245.107C774.29 256.896 774.29 276.011 762.501 287.8L719.808 245.107C731.597 233.317 750.712 233.317 762.501 245.107Z" fill="#66E3FF"/>
<path d="M1556.21 1540.21C1561.63 1520 1549.64 1499.23 1529.43 1493.82L1519.63 1530.4L1556.21 1540.21Z" fill="#66E3FF"/>
<path d="M1930.38 1473.19C1934.7 1457.08 1925.14 1440.53 1909.04 1436.21L1893.41 1494.53C1909.51 1498.85 1926.07 1489.29 1930.38 1473.19Z" fill="#78AEFF"/>
<path d="M2462.97 1413.81C2477.41 1405.48 2482.35 1387.01 2474.02 1372.58L2421.73 1402.76C2430.07 1417.2 2448.53 1422.15 2462.97 1413.81Z" fill="#57DAD1"/>
<path d="M738.431 1551.05C743.845 1530.85 731.854 1510.08 711.648 1504.67L701.845 1541.25L738.431 1551.05Z" fill="#66E3FF"/>
<path d="M1112.6 1484.04C1116.91 1467.93 1107.36 1451.38 1091.25 1447.06L1075.63 1505.38C1091.73 1509.7 1108.28 1500.14 1112.6 1484.04Z" fill="#57DAD1"/>
<path d="M1645.18 1424.66C1659.62 1416.33 1664.57 1397.86 1656.23 1383.42L1603.95 1413.61C1612.28 1428.05 1630.74 1433 1645.18 1424.66Z" fill="#FDA9FF"/>
<path d="M2572.63 1260.1C2587.42 1245.31 2587.42 1221.33 2572.63 1206.53L2545.85 1233.32L2572.63 1260.1Z" fill="#66E3FF"/>
<path d="M2930.18 1389.15C2941.97 1377.36 2941.97 1358.24 2930.18 1346.45L2887.49 1389.15C2899.28 1400.93 2918.39 1400.93 2930.18 1389.15Z" fill="#78AEFF"/>
<path d="M395.958 54.0734C381.166 39.2818 381.166 15.2999 395.958 0.508301L422.741 27.2909L395.958 54.0734Z" fill="#FDA9FF"/>
<path d="M2449.42 185.209C2434.63 170.417 2434.63 146.435 2449.42 131.644L2476.21 158.426L2449.42 185.209Z" fill="#FDA9FF"/>
<path d="M78.7762 154.808C70.4398 140.369 75.387 121.906 89.8261 113.57L120.015 165.858C105.576 174.195 87.1126 169.247 78.7762 154.808Z" fill="#66E3FF"/>
<path d="M2572.63 275.826C2587.42 290.618 2587.42 314.6 2572.63 329.391L2545.85 302.609L2572.63 275.826Z" fill="#66E3FF"/>
<path d="M2930.18 146.779C2941.97 158.569 2941.97 177.683 2930.18 189.473L2887.49 146.779C2899.28 134.99 2918.39 134.99 2930.18 146.779Z" fill="#78AEFF"/>
</svg>
