<svg width="1920" height="162" viewBox="0 0 1920 162" fill="none" xmlns="http://www.w3.org/2000/svg">
<path d="M234.526 11.0023C141.906 10.2497 0 46.3565 0 46.3565V161.08H1920V63.4058C1920 63.4058 1688.55 0.66342 1537.19 2.60272C1397.11 4.39741 1323.7 59.6199 1183.67 63.4058C1017.46 67.8996 927.884 -12.1137 762.264 2.60272C659.361 11.7462 608.087 60.8751 504.81 63.4058C397.324 66.0397 342.041 11.876 234.526 11.0023Z" fill="#78AEFF" fill-opacity="0.5"/>
<path d="M541.751 79.2721C328.737 83.7382 211.567 39.7045 0 14.3513V160.374H1920V14.3513C1640.58 14.3513 1599.62 78.808 1392.64 71.1481C1238.49 65.4432 1155.93 16.4482 1001.69 14.3513C820.332 11.8858 723.086 75.4703 541.751 79.2721Z" fill="#FDA9FF" fill-opacity="0.5"/>
<path d="M193.984 71.3912C117.842 71.2185 75.7556 59.4415 0 51.7847V160.375H1920V20.8663C1725.81 20.8663 1696.43 73.6743 1551 71.3912C1420.51 69.3427 1351.17 21.2836 1220.67 20.8663C1087.38 20.4402 1016.4 69.4674 883.119 71.3912C735.602 73.5205 656.224 17.1756 508.737 20.8663C384.281 23.9807 318.479 71.6735 193.984 71.3912Z" fill="#66E3FF"/>
</svg>
