<svg width="24" height="26" viewBox="0 0 24 26" fill="none" xmlns="http://www.w3.org/2000/svg">
<path d="M18.3024 2.41346C16.6215 1.3744 14.6034 0.857178 12.2575 0.857178C9.88389 0.857178 7.7781 1.39287 5.94477 2.45964C4.11144 3.5264 2.67525 4.99955 1.63621 6.87909C0.597167 8.75863 0.0799561 10.9291 0.0799561 13.3951C0.0799561 15.8288 0.624876 17.9901 1.72395 19.865C2.82303 21.7445 4.33772 23.2177 6.27726 24.2845C8.21681 25.3512 10.4334 25.8869 12.9317 25.8869C14.3125 25.8869 15.7672 25.6329 17.2819 25.1203C18.8012 24.6077 20.0711 23.9473 21.0917 23.1346C21.6043 22.742 21.8444 22.2756 21.8121 21.7353C21.7844 21.195 21.5119 20.6962 20.9993 20.2483C20.6068 19.9158 20.1496 19.7588 19.6232 19.7726C19.0967 19.7911 18.6072 19.962 18.1593 20.2899C17.5589 20.7424 16.7693 21.1396 15.7903 21.4859C14.8159 21.8323 13.86 22.0031 12.9271 22.0031C11.2139 22.0031 9.69455 21.6291 8.37382 20.8763C7.04846 20.1236 6.01404 19.103 5.26131 17.81C4.76257 16.951 4.49011 15.9859 4.32386 14.9699H21.4057C22.006 14.9699 22.5048 14.7805 22.8927 14.4065C23.2852 14.0324 23.4792 13.5568 23.4792 12.9841C23.4792 10.6058 23.0358 8.51388 22.1492 6.68975C21.2718 4.87948 19.9834 3.45251 18.3024 2.41346ZM7.86122 5.86312C9.08036 5.11039 10.5443 4.73633 12.2575 4.73633C13.7584 4.73633 15.0375 5.08268 16.0904 5.77538C17.1433 6.46809 17.9561 7.40555 18.5241 8.59238C18.9259 9.42825 19.1475 10.3749 19.2814 11.3678H4.34695C4.50396 10.5135 4.73024 9.69609 5.09044 8.95259C5.71849 7.64569 6.64208 6.61586 7.86122 5.86312Z" fill="#57DAD1"/>
</svg>
