<svg width="26" height="26" viewBox="0 0 26 26" fill="none" xmlns="http://www.w3.org/2000/svg">
<path d="M19.1904 2.50571C17.3248 1.40662 15.2236 0.861694 12.8777 0.861694C10.5317 0.861694 8.42133 1.41124 6.54181 2.50571C4.6623 3.60019 3.17532 5.10105 2.07624 6.99444C0.977169 8.88784 0.432251 11.026 0.432251 13.3997C0.432251 15.7733 0.935611 17.9022 1.94233 19.7818C2.94904 21.6613 4.3252 23.1483 6.07079 24.2474C7.81638 25.3465 9.78363 25.8914 11.9772 25.8914C14.1707 25.8914 16.1426 25.3465 17.8882 24.2474C18.9826 23.5593 19.8785 22.6588 20.682 21.6613V23.4577C20.682 24.1181 20.8991 24.6677 21.3378 25.1017C21.7719 25.5405 22.3214 25.7575 22.9818 25.7575C23.6421 25.7575 24.1917 25.5405 24.6258 25.1017C25.0598 24.6677 25.2769 24.1181 25.2769 23.4577V13.395C25.2769 11.0214 24.7274 8.88322 23.6329 6.98982C22.5338 5.09643 21.0515 3.60481 19.1904 2.50571ZM19.8185 17.7037C19.1258 18.9829 18.1791 19.9896 16.9784 20.7239C15.7777 21.4627 14.4062 21.8276 12.873 21.8276C11.3676 21.8276 10.0099 21.4627 8.79077 20.7239C7.57163 19.9896 6.61109 18.9782 5.90454 17.7037C5.19799 16.4245 4.84241 14.9883 4.84241 13.395C4.84241 11.7695 5.19799 10.3194 5.90454 9.04023C6.61109 7.76104 7.57163 6.7543 8.79077 6.02004C10.0053 5.28115 11.3676 4.91171 12.873 4.91171C14.4062 4.91171 15.7731 5.28115 16.9784 6.02004C18.1791 6.7543 19.1258 7.76565 19.8185 9.04023C20.5112 10.3194 20.8575 11.7695 20.8575 13.395C20.8575 14.9883 20.5112 16.4245 19.8185 17.7037Z" fill="#57DAD1"/>
</svg>
