<svg width="26" height="26" viewBox="0 0 26 26" fill="none" xmlns="http://www.w3.org/2000/svg">
<path d="M24.1324 6.87909C23.0657 4.99955 21.5972 3.5264 19.7315 2.45964C17.8658 1.39287 15.7324 0.857178 13.331 0.857178C10.8973 0.857178 8.74537 1.39287 6.87972 2.45964C5.01406 3.5264 3.55016 4.99955 2.48342 6.87909C1.41667 8.75863 0.880981 10.9291 0.880981 13.3951C0.880981 15.8288 1.41205 17.9901 2.48342 19.865C3.55016 21.7445 5.01406 23.2177 6.87972 24.2845C8.74537 25.3512 10.8927 25.8869 13.331 25.8869C15.7693 25.8869 17.9166 25.3558 19.7777 24.2845C21.6433 23.2177 23.098 21.7445 24.1509 19.865C25.2038 17.9855 25.7302 15.8288 25.7302 13.3951C25.7302 10.9337 25.1992 8.75863 24.1324 6.87909ZM20.2995 17.773C19.6207 19.0338 18.6832 20.0266 17.4826 20.7517C16.2773 21.4721 14.8965 21.8323 13.3356 21.8323C11.7701 21.8323 10.3894 21.4721 9.1887 20.7517C7.98341 20.0266 7.03673 19.0384 6.34403 17.773C5.65134 16.5077 5.30499 15.053 5.30499 13.3998C5.30499 11.7465 5.65134 10.278 6.34403 9.00339C7.03673 7.72419 7.98341 6.7267 9.1887 6.00167C10.3894 5.28125 11.7748 4.92105 13.3356 4.92105C14.8965 4.92105 16.2819 5.28125 17.4826 6.00167C18.6832 6.7267 19.6253 7.72419 20.2995 9.00339C20.9737 10.2826 21.3155 11.7465 21.3155 13.3998C21.3109 15.0484 20.9737 16.5077 20.2995 17.773Z" fill="#57DAD1"/>
</svg>
