<svg width="16" height="33" viewBox="0 0 16 33" fill="none" xmlns="http://www.w3.org/2000/svg">
<path d="M13.9421 28.2H12.409C11.4484 28.2 10.6357 27.7936 9.97529 26.9855C9.31492 26.1727 8.98242 25.166 8.98242 23.9653V12.822H12.8153C13.448 12.822 13.956 12.6419 14.3485 12.2817C14.741 11.9215 14.935 11.4689 14.935 10.9286C14.935 10.3282 14.7364 9.84795 14.3485 9.48313C13.956 9.12292 13.448 8.94282 12.8153 8.94282H8.98242V2.44987C8.98242 1.78949 8.77 1.24456 8.34977 0.824321C7.92953 0.40408 7.38461 0.19165 6.72424 0.19165C6.06387 0.19165 5.51896 0.40408 5.09872 0.824321C4.67849 1.24456 4.46606 1.78487 4.46606 2.44987V8.9382H2.3926C1.75994 8.9382 1.24734 9.11831 0.859432 9.47851C0.466906 9.83872 0.272949 10.319 0.272949 10.924C0.272949 11.4643 0.466906 11.9168 0.859432 12.277C1.25196 12.6372 1.76456 12.8173 2.3926 12.8173H4.46606V23.956C4.46606 25.6093 4.81241 27.1009 5.5051 28.4217C6.19779 29.7471 7.14448 30.7907 8.34977 31.5573C9.55044 32.3239 10.9035 32.7072 12.409 32.7072H13.2217C14.0022 32.7072 14.644 32.4994 15.1382 32.0745C15.6369 31.6543 15.8817 31.114 15.8817 30.449C15.8817 29.7886 15.6923 29.2483 15.3183 28.8234C14.9442 28.4078 14.4824 28.2 13.9421 28.2Z" fill="#57DAD1"/>
</svg>
