<svg width="25" height="36" viewBox="0 0 25 36" fill="none" xmlns="http://www.w3.org/2000/svg">
<path d="M20.0881 3.4248V4.46848C18.0147 2.07172 15.2208 0.857178 11.7666 0.857178C8.41393 0.857178 5.58312 2.07634 3.36188 4.47772C1.1314 6.84215 0 9.80693 0 13.2982C0 16.8171 1.12678 19.8327 3.35264 22.2525C5.58312 24.6955 8.41393 25.9331 11.7666 25.9331C13.8354 25.9331 15.7011 25.4482 17.3035 24.4876C18.3333 23.8688 19.2523 23.1022 20.042 22.2017V23.6287C20.042 26.2471 19.3446 28.2744 17.9731 29.646C16.6108 31.0129 14.6066 31.7056 12.0067 31.7056C9.102 31.7056 6.71452 30.722 5.27833 29.9415C4.41015 29.4705 3.32493 29.7245 2.78001 30.5511L2.73845 30.6158C2.12426 31.5486 2.4429 32.8093 3.43576 33.3219C5.33836 34.3056 8.57556 35.631 12.2007 35.631C15.9227 35.631 18.8875 34.6011 21.021 32.5646C23.1683 30.5234 24.2582 27.434 24.2582 23.3839V3.4248C24.2582 2.27491 23.3253 1.33745 22.1708 1.33745C21.021 1.34207 20.0881 2.27491 20.0881 3.4248ZM17.7607 7.30857C19.2938 8.98953 20.0373 10.9661 20.0373 13.3443C20.0373 15.7919 19.2892 17.8146 17.7561 19.5325C16.2414 21.2273 14.3896 22.0493 12.1037 22.0493C9.8455 22.0493 7.92442 21.1858 6.4005 19.4863C4.86733 17.773 4.11922 15.7457 4.11922 13.2982C4.11922 10.8875 4.86271 8.91564 6.39126 7.26701C7.90595 5.63222 9.77623 4.83792 12.0991 4.83792C14.3942 4.83792 16.246 5.64608 17.7607 7.30857Z" fill="#57DAD1"/>
</svg>
