<svg width="11" height="36" viewBox="0 0 11 36" fill="none" xmlns="http://www.w3.org/2000/svg">
<path d="M8.20167 31.1995H7.07488C6.41451 31.1995 5.8696 30.8393 5.44936 30.1189C5.02913 29.3939 4.8167 28.4795 4.8167 27.3666V2.73859C4.8167 2.07821 4.60427 1.5379 4.18404 1.11304C3.76842 0.697415 3.22812 0.484985 2.56775 0.484985C1.90738 0.484985 1.36708 0.697415 0.942229 1.11766C0.521994 1.5379 0.30957 2.08282 0.30957 2.7432V27.3666C0.30957 28.9921 0.595884 30.4283 1.16851 31.6752C1.74114 32.9267 2.53543 33.9103 3.56062 34.6307C4.5858 35.3511 5.75415 35.7113 7.0795 35.7113H7.16724C8.06774 35.7113 8.80662 35.5035 9.37463 35.0787C9.94726 34.6584 10.2336 34.1181 10.2336 33.4531C10.2336 32.7927 10.0442 32.2524 9.67018 31.8276C9.29151 31.4073 8.80662 31.1995 8.20167 31.1995Z" fill="#57DAD1"/>
</svg>
