<svg
    width="23"
    height="20"
    viewBox="0 0 23 20"
    fill="none"
    xmlns="http://www.w3.org/2000/svg"
>
    <path
        d="M11.9736 4.4248C14.7336 4.4248 16.9736 6.6648 16.9736 9.4248C16.9736 10.0748 16.8436 10.6848 16.6136 11.2548L19.5336 14.1748C21.0436 12.9148 22.2336 11.2848 22.9636 9.4248C21.2336 5.0348 16.9636 1.9248 11.9636 1.9248C10.5636 1.9248 9.22363 2.1748 7.98363 2.6248L10.1436 4.7848C10.7136 4.5548 11.3236 4.4248 11.9736 4.4248ZM1.97363 1.6948L4.25363 3.9748L4.71363 4.4348C3.05363 5.7248 1.75363 7.4448 0.973633 9.4248C2.70363 13.8148 6.97363 16.9248 11.9736 16.9248C13.5236 16.9248 15.0036 16.6248 16.3536 16.0848L16.7736 16.5048L19.7036 19.4248L20.9736 18.1548L3.24363 0.424805L1.97363 1.6948ZM7.50363 7.2248L9.05363 8.77481C9.00363 8.98481 8.97363 9.2048 8.97363 9.4248C8.97363 11.0848 10.3136 12.4248 11.9736 12.4248C12.1936 12.4248 12.4136 12.3948 12.6236 12.3448L14.1736 13.8948C13.5036 14.2248 12.7636 14.4248 11.9736 14.4248C9.21363 14.4248 6.97363 12.1848 6.97363 9.4248C6.97363 8.6348 7.17363 7.8948 7.50363 7.2248ZM11.8136 6.44481L14.9636 9.5948L14.9836 9.4348C14.9836 7.77481 13.6436 6.4348 11.9836 6.4348L11.8136 6.44481Z"
        fill="#B0B0B0"
    />
</svg>
