
<svg
width="23"
height="16"
viewBox="0 0 23 16"
fill="none"
xmlns="http://www.w3.org/2000/svg"
>
  <path
  d="M11.3066 0.274902C6.30664 0.274902 2.03664 3.3849 0.306641 7.7749C2.03664 12.1649 6.30664 15.2749 11.3066 15.2749C16.3066 15.2749 20.5766 12.1649 22.3066 7.7749C20.5766 3.3849 16.3066 0.274902 11.3066 0.274902ZM11.3066 12.7749C8.54664 12.7749 6.30664 10.5349 6.30664 7.7749C6.30664 5.0149 8.54664 2.7749 11.3066 2.7749C14.0666 2.7749 16.3066 5.0149 16.3066 7.7749C16.3066 10.5349 14.0666 12.7749 11.3066 12.7749ZM11.3066 4.7749C9.64664 4.7749 8.30664 6.1149 8.30664 7.7749C8.30664 9.4349 9.64664 10.7749 11.3066 10.7749C12.9666 10.7749 14.3066 9.4349 14.3066 7.7749C14.3066 6.1149 12.9666 4.7749 11.3066 4.7749Z"
  fill="#333333"
  />
</svg>